<svg width="141" height="40" viewBox="0 0 141 40" fill="none" xmlns="http://www.w3.org/2000/svg">
<path d="M2.92205 39.5H11V11.5L1.24601 18.9628C0.853427 19.2616 0.535069 19.6566 0.318157 20.114C0.101244 20.5714 -0.00777087 21.0776 0.000430805 21.5893V36.4083C0.000430805 37.2283 0.308244 38.0146 0.856153 38.5945C1.40406 39.1743 2.14719 39.5 2.92205 39.5Z" fill="#545451"/>
<path d="M11 0.5V12.0327L15.7897 8.57192C15.95 8.45585 16.1397 8.38619 16.3375 8.37068C16.5353 8.35518 16.7336 8.39444 16.9103 8.4841C17.087 8.57375 17.2352 8.7103 17.3384 8.87854C17.4416 9.04679 17.4957 9.24014 17.4948 9.43711V39.5H25.9438C26.7543 39.5 27.5316 39.1805 28.1046 38.6117C28.6777 38.0429 28.9997 37.2715 28.9997 36.4671V15.0085C29.0068 14.5279 28.9004 14.0523 28.6892 13.6198C28.4779 13.1872 28.1676 12.8098 27.7831 12.5176L11 0.5Z" fill="#545451"/>
<path d="M48.3563 13.5L41 31.5H43.5747L45.1563 27.5589H52.8069L54.3885 31.5H57L49.6437 13.5H48.3563ZM51.8506 25.1905H46.0943L48.9816 17.9905L51.8506 25.1905Z" fill="#545451"/>
<path d="M67.9848 15.8927C68.7109 15.8941 69.4254 16.0652 70.0642 16.3906C70.703 16.716 71.2463 17.1855 71.6454 17.7572L72.0213 18.242L74 16.8436L73.6636 16.3775C73.0404 15.4886 72.1902 14.7615 71.191 14.2631C70.1918 13.7646 69.0757 13.5107 67.9452 13.5247C67.2482 13.458 66.5441 13.5266 65.8764 13.7264C65.2087 13.9262 64.5915 14.2528 64.063 14.6861C63.5345 15.1195 63.106 15.6503 62.8037 16.2459C62.5015 16.8415 62.3321 17.4891 62.3059 18.1488C62.4247 20.9082 64.2846 21.8778 66.481 22.8846L68.4597 23.761C70.8539 24.8983 71.2496 25.2899 71.309 26.595C71.3683 27.9002 70.003 29.0935 68.0046 29.0935C67.0435 29.0762 66.1046 28.8185 65.284 28.3467C64.4634 27.8749 63.7907 27.206 63.3349 26.4086L62.9787 25.8865L61 27.2849L61.277 27.751C61.9625 28.8701 62.9448 29.8022 64.1276 30.4559C65.3105 31.1096 66.6532 31.4625 68.0244 31.4801C68.7592 31.5412 69.4997 31.4613 70.2009 31.2454C70.9021 31.0294 71.5497 30.6818 72.1044 30.2235C72.6592 29.7653 73.1097 29.2058 73.4286 28.579C73.7476 27.9522 73.9285 27.2709 73.9604 26.5764C73.9604 24.0033 72.2983 22.8474 69.6073 21.5795L67.6286 20.6845C65.5312 19.715 64.9772 19.4166 64.898 18.0555C64.8844 17.7488 64.9513 17.4437 65.0928 17.1673C65.2343 16.8908 65.4461 16.6515 65.7093 16.4707C66.3813 16.0507 67.1798 15.8479 67.9848 15.8927Z" fill="#545451"/>
<path d="M80.5 13.5H78V31.5H80.5V13.5Z" fill="#545451"/>
<path d="M92.7982 13.5L84.7477 30.9695L84.5 31.5H87.4105L89.1858 27.5589H97.7936L99.5688 31.5H102.5L94.2431 13.5H92.7982ZM96.7202 25.1905H90.2592L93.5 17.9905L96.7202 25.1905Z" fill="#545451"/>
<path d="M117.996 26.3037L107.98 13.5935L107.885 13.5H106.5V31.257H109.004V18.7897L119.077 31.5H120.5V13.743H117.996V26.3037Z" fill="#545451"/>
<path d="M133.152 13.5H131.885L124.72 30.9695L124.5 31.5H127.072L128.652 27.5589H136.33L137.91 31.5H140.5L133.152 13.5ZM135.356 25.1905H129.662L132.546 17.9905L135.356 25.1905Z" fill="#545451"/>
</svg>
