<svg width="29" height="40" viewBox="0 0 29 40" fill="none" xmlns="http://www.w3.org/2000/svg">
<path d="M2.92205 39.5H11V11.5L1.24601 18.9628C0.853427 19.2616 0.535069 19.6566 0.318157 20.114C0.101244 20.5714 -0.00777087 21.0776 0.000430805 21.5893V36.4083C0.000430805 37.2283 0.308244 38.0146 0.856153 38.5945C1.40406 39.1743 2.14719 39.5 2.92205 39.5Z" fill="#545451"/>
<path d="M11 0.5V12.0327L15.7897 8.57192C15.95 8.45585 16.1397 8.38619 16.3375 8.37068C16.5353 8.35518 16.7336 8.39444 16.9103 8.4841C17.087 8.57375 17.2352 8.7103 17.3384 8.87854C17.4416 9.04679 17.4957 9.24014 17.4948 9.43711V39.5H25.9438C26.7543 39.5 27.5316 39.1805 28.1046 38.6117C28.6777 38.0429 28.9997 37.2715 28.9997 36.4671V15.0085C29.0068 14.5279 28.9004 14.0523 28.6892 13.6198C28.4779 13.1872 28.1676 12.8098 27.7831 12.5176L11 0.5Z" fill="#545451"/>
</svg>
